# xmcd
#
# Track frame offsets: 
#        150
#        28330
#        46865
#        61007
#        82007
#        113225
#        138150
#        176605
#
# Disc length: 2564 seconds
#
# Revision: 1
# Processed by: cddbd v1.5.2PL0 Copyright (c) Steve Scherf et al.
# Submitted via: ExactAudioCopy v0.95b2
#
DISCID=640a0208
DTITLE=The Isley Brothers - Live It Up
DYEAR=1974
DGENRE=R&B
TTITLE0=Live It Up
TTITLE1=Brown-Eyed Girl
TTITLE2=Need A Little Taste Of Love
TTITLE3=Lover's Eve
TTITLE4=Midnight Sky
TTITLE5=Hello It's Me
TTITLE6=Ain't I Been Good To You
TTITLE7=Live It Up (Live)
EXTD=
EXTT0=
EXTT1=
EXTT2=
EXTT3=
EXTT4=
EXTT5=
EXTT6=
EXTT7=
PLAYORDER=
